<svg width="45" height="44" viewBox="0 0 45 44" fill="none" xmlns="http://www.w3.org/2000/svg">
<path d="M0.625 16.125C0.625 10.5245 0.625 7.72421 1.71493 5.58509C2.67367 3.70347 4.20347 2.17367 6.08509 1.21493C8.22421 0.125 11.0245 0.125 16.625 0.125H28.375C33.9755 0.125 36.7758 0.125 38.9149 1.21493C40.7965 2.17367 42.3263 3.70347 43.2851 5.58509C44.375 7.72421 44.375 10.5245 44.375 16.125V27.875C44.375 33.4755 44.375 36.2758 43.2851 38.4149C42.3263 40.2965 40.7965 41.8263 38.9149 42.7851C36.7758 43.875 33.9755 43.875 28.375 43.875H16.625C11.0245 43.875 8.22421 43.875 6.08509 42.7851C4.20347 41.8263 2.67367 40.2965 1.71493 38.4149C0.625 36.2758 0.625 33.4755 0.625 27.875V16.125Z" fill="white"/>
</svg>
